<svg width="371" height="549" viewBox="0 0 371 549" fill="none" xmlns="http://www.w3.org/2000/svg">
<path d="M407.763 494.005C410.235 492.845 412.039 491.245 413.175 489.207C413.892 487.834 414.341 485.412 414.52 481.939L415.749 437.447L403.3 414.057C402.137 411.873 400.776 410.676 399.217 410.466C396.996 410.284 393.568 411.281 388.933 413.455L387.008 409.839L417.137 395.704L419.062 399.32C416.667 400.444 414.777 401.519 413.392 402.545C411.89 403.532 410.814 404.413 410.165 405.188C409.33 406.522 409.534 408.356 410.777 410.691L422.564 432.838L464.685 461.369C466.534 462.667 468.334 463.329 470.085 463.354C471.8 463.491 474.009 462.926 476.713 461.657L478.637 465.273L452.1 477.723L450.176 474.107C452.03 473.237 453.748 472.384 455.33 471.547C456.875 470.823 457.817 470.051 458.154 469.234C458.494 468.604 458.524 468.025 458.244 467.498C457.886 467.007 457.392 466.532 456.762 466.075L420.948 441.503L419.825 481.568C419.8 482.427 419.929 483.214 420.213 483.928C420.496 484.642 421.107 485.155 422.046 485.468C423.572 485.976 426.768 485.089 431.635 482.805L433.559 486.421L409.688 497.62L407.763 494.005Z" fill="#E6D0BB"/>
<path d="M314.556 454.793L320.789 431.773L383.314 425.412L383.798 429.608C379.469 430.049 376.401 431.004 374.595 432.474C373.269 433.639 372.753 435.492 373.047 438.035L380.663 504.029C380.986 506.827 381.886 508.665 383.361 509.544C385.101 510.482 388.349 510.709 393.103 510.225L393.572 514.294L361.355 517.572L360.885 513.503C366.488 512.933 369.905 512.028 371.136 510.788C372.368 509.547 372.827 507.571 372.513 504.858L364.882 438.737C364.588 436.194 363.831 434.47 362.61 433.565C361.219 432.677 359.038 432.385 356.067 432.687L341.932 434.125C336.159 434.712 331.501 436.773 327.958 440.307C324.216 443.604 320.873 448.875 317.93 456.122L314.556 454.793Z" fill="#E6D0BB"/>
<path d="M246.199 452.596C245.856 452.246 245.47 451.886 245.044 451.515C244.617 451.145 244.232 450.784 243.888 450.434C246.345 447.093 248.738 443.824 251.066 440.626C253.287 437.49 255.592 434.375 257.979 431.28L321.922 447.305L320.802 451.245C316.994 450.29 314.046 450.211 311.958 451.007C310.201 451.885 308.972 453.556 308.272 456.018L290.28 519.302C290.023 520.205 289.926 521.016 289.987 521.735C290.098 522.906 290.35 523.892 290.742 524.694C291.978 526.586 294.623 528.04 298.679 529.057L297.524 533.12L236.437 517.811C236.033 513.929 235.659 510.098 235.315 506.319C234.888 502.519 234.473 498.678 234.069 494.796C234.553 494.653 235.048 494.47 235.556 494.245C236.04 494.102 236.512 494.001 236.972 493.94C237.73 497.823 238.871 501.143 240.393 503.898C241.915 506.654 243.411 508.875 244.882 510.563C248.429 514.617 253.1 517.37 258.894 518.822L272.055 522.121C274.704 522.785 277.019 522.749 279.001 522.015C280.523 521.341 281.634 519.773 282.334 517.311L290.21 489.609L271.585 484.941C267.612 483.945 264.636 484.123 262.656 485.473C260.145 487.13 258.05 490.913 256.37 496.823L252.645 495.89L262.341 461.785L266.066 462.719C264.269 469.039 264.054 473.382 265.421 475.747C266.421 477.844 268.907 479.39 272.881 480.386L291.505 485.053L300.361 453.903C301.084 451.359 300.977 449.398 300.038 448.019C299.397 447.155 298.562 446.506 297.533 446.073C296.444 445.536 295.196 445.091 293.789 444.739L279.51 441.16C272.971 439.522 267.542 439.436 263.223 440.904C260.675 441.76 258.004 443.201 255.211 445.226C252.336 447.232 249.332 449.688 246.199 452.596Z" fill="#E6D0BB"/>
<path d="M161.196 410.984C166.659 405.346 172.917 402.682 179.968 402.993C186.943 403.014 193.708 405.824 200.262 411.421C202.468 413.306 204.631 415.601 206.751 418.309C208.872 421.016 210.622 423.799 212.003 426.658C213.403 427.293 214.832 427.899 216.292 428.473C217.686 428.992 219.075 429.394 220.459 429.68C218.776 433.619 217.186 437.525 215.687 441.397C214.124 445.213 212.501 449.091 210.818 453.031C210.127 452.888 209.497 452.742 208.93 452.593C208.303 452.506 207.673 452.36 207.041 452.156C208.552 444.599 208.825 438.504 207.859 433.871C207.599 432.304 207.116 430.66 206.412 428.939C205.644 427.162 204.753 425.45 203.741 423.802C202.789 422.092 201.718 420.505 200.528 419.041C199.338 417.576 198.159 416.345 196.991 415.348C194.525 413.242 192.022 411.664 189.482 410.614C186.941 409.564 184.488 409.037 182.121 409.032C177.08 409.094 172.659 411.086 168.859 415.008C167.434 416.479 166.395 418.224 165.743 420.243C165.032 422.324 164.815 424.322 165.092 426.239C165.787 430.417 168.743 436.974 173.96 445.91C178.035 453.086 180.518 459.519 181.409 465.208C182.815 472.569 181.172 478.67 176.481 483.512C171.671 488.476 165.93 490.852 159.257 490.64C152.713 490.54 146.522 487.996 140.682 483.008C137.892 480.625 135.523 477.929 133.575 474.922C133.099 474.067 132.655 473.24 132.244 472.44C131.768 471.586 131.356 470.786 131.01 470.042L123.388 466.893C124.952 463.076 126.486 459.29 127.99 455.535C129.494 451.78 131.028 447.994 132.592 444.177C133.602 444.48 134.643 444.753 135.713 444.995C134.162 451.735 133.892 457.888 134.902 463.455C136.27 469.999 139.387 475.349 144.253 479.506C145.94 480.947 147.735 482.032 149.638 482.761C151.481 483.551 153.343 484.077 155.223 484.339C157.855 484.683 160.397 484.446 162.849 483.629C165.301 482.811 167.567 481.33 169.645 479.185C173.03 475.692 173.936 471.146 172.364 465.547C171.486 462.781 170.525 460.224 169.48 457.876C168.376 455.589 166.812 452.797 164.788 449.5C162.018 444.894 159.893 440.784 158.415 437.169C156.937 433.554 155.981 430.441 155.546 427.83C154.503 421.563 156.386 415.948 161.196 410.984Z" fill="#E6D0BB"/>
<path d="M53.9356 378.995C56.744 376.394 59.5133 373.81 62.2434 371.242C64.9734 368.675 67.8398 366.095 70.8425 363.503C71.2988 364.049 71.7757 364.54 72.273 364.975C72.7328 365.334 73.1909 365.786 73.6473 366.332C71.067 369.207 69.095 371.772 67.7313 374.03C66.2518 376.245 65.2034 378.274 64.586 380.117C63.8424 382.479 63.758 384.928 64.3329 387.464C64.9078 390.001 65.7383 392.381 66.8244 394.605C68.9966 399.052 70.7725 401.814 72.152 402.89C73.6064 404.12 75.3917 404.279 77.5079 403.368L139.935 376.49C142.208 375.511 143.403 373.976 143.52 371.884C143.633 369.979 142.435 366.458 139.926 361.321L143.688 359.701L159.53 392.135L155.768 393.755C153.52 389.154 151.612 386.218 150.042 384.945C147.974 383.237 145.804 382.872 143.531 383.85L80.1627 411.134C78.5168 411.842 77.6799 412.945 77.6521 414.442C77.5869 415.862 78.4156 418.336 80.1384 421.863C81.4492 424.546 83.0326 427.205 84.8886 429.84C86.7071 432.398 88.9653 434.302 91.6634 435.554C92.7807 436.093 94.0361 436.527 95.4296 436.855C96.7446 437.217 98.4293 437.559 100.484 437.881C101.802 438.055 103.102 438.192 104.383 438.29C105.586 438.422 106.886 438.558 108.282 438.699C108.272 439.26 108.301 439.805 108.369 440.332C108.321 440.817 108.292 441.34 108.281 441.901C104.428 442.168 100.613 442.419 96.838 442.652C93.0628 442.885 89.2484 443.136 85.3947 443.403L53.9356 378.995Z" fill="#E6D0BB"/>
<path d="M33.0777 286.576C33.2906 289.299 34.1546 291.591 35.6698 293.454C36.706 294.666 38.8264 296.059 42.0308 297.634L83.4611 316.845L109.894 315.023C112.363 314.853 113.973 314.101 114.725 312.766C115.685 310.818 115.966 307.292 115.567 302.187L119.653 301.906L122.248 335.084L118.161 335.366C117.955 332.729 117.615 330.571 117.142 328.893C116.746 327.124 116.299 325.786 115.801 324.88C114.843 323.577 113.044 323.017 110.405 323.199L85.3768 324.925L43.5606 351.671C41.6825 352.827 40.4202 354.197 39.7737 355.781C39.0355 357.286 38.7829 359.527 39.0157 362.504L34.9294 362.786L32.644 333.563L36.7303 333.282C36.89 335.323 37.0823 337.235 37.3071 339.015C37.4402 340.717 37.8313 341.887 38.4804 342.527C38.9527 343.093 39.4867 343.356 40.0827 343.314C40.6719 343.188 41.2938 342.932 41.9482 342.544L77.7966 319.93L40.4946 302.615C39.6951 302.243 38.909 302.041 38.1362 302.008C37.3633 301.976 36.663 302.324 36.0352 303.051C35.015 304.233 34.7144 307.504 35.1336 312.864L31.0473 313.146L28.9914 286.858L33.0777 286.576Z" fill="#E6D0BB"/>
<path d="M104.552 219.81L123.47 234.056L105.078 294.153L101 293.053C102.274 288.891 102.58 285.705 101.918 283.495C101.354 281.841 99.8362 280.681 97.3646 280.014L33.2255 262.711C30.5067 261.978 28.4532 262.13 27.065 263.169C25.5195 264.431 24.0475 267.346 22.649 271.916L18.6944 270.849L28.1714 239.883L32.126 240.949C30.4778 246.335 29.9895 249.825 30.661 251.419C31.3325 253.014 32.9864 254.167 35.6228 254.878L99.8855 272.214C102.357 272.881 104.25 272.817 105.563 272.023C106.926 271.066 108.045 269.159 108.919 266.304L113.077 252.718C114.775 247.169 114.674 242.107 112.774 237.531C111.172 232.858 107.583 227.827 102.009 222.436L104.552 219.81Z" fill="#E6D0BB"/>
<path d="M133.918 163.265C134.395 163.082 134.899 162.867 135.43 162.618C135.961 162.369 136.465 162.154 136.942 161.971C139.152 165.331 141.319 168.608 143.444 171.803C145.553 174.881 147.609 178.026 149.611 181.237L108.088 232.435L104.755 230.053C107.228 227.004 108.508 224.412 108.596 222.276C108.468 220.405 107.363 218.725 105.281 217.236L51.7593 178.973C50.9957 178.427 50.2556 178.055 49.539 177.857C48.3678 177.543 47.3164 177.419 46.3848 177.486C44.0602 177.919 41.581 179.758 38.9472 183.006L35.511 180.549L75.1798 131.638C79.0785 132.645 82.9157 133.661 86.6913 134.684C90.5206 135.642 94.3847 136.625 98.2834 137.632C98.2229 138.112 98.1971 138.617 98.206 139.147C98.1455 139.627 98.0503 140.083 97.9204 140.514C93.8761 139.821 90.218 139.666 86.9461 140.05C83.6743 140.433 80.9265 140.981 78.7027 141.695C73.3548 143.421 68.7995 146.604 65.0369 151.243L56.4904 161.781C54.7703 163.902 53.8587 165.972 53.7555 167.993C53.7823 169.582 54.8369 171.121 56.9194 172.61L80.348 189.36L92.4422 174.448C95.0223 171.266 96.0672 168.558 95.5769 166.323C95.0083 163.508 92.225 160.314 87.2269 156.741L89.6457 153.759L118.489 174.379L116.07 177.361C110.725 173.54 106.636 171.821 103.803 172.204C101.378 172.355 98.875 174.021 96.2949 177.202L84.2007 192.114L110.545 210.948C112.697 212.486 114.627 213.081 116.336 212.732C117.429 212.466 118.394 211.952 119.232 211.19C120.192 210.411 121.13 209.458 122.043 208.331L131.316 196.899C135.562 191.663 137.861 186.867 138.213 182.512C138.431 179.945 138.135 177.064 137.327 173.869C136.573 170.607 135.436 167.072 133.918 163.265Z" fill="#E6D0BB"/>
<path d="M181.477 121.946C186.026 128.344 187.321 134.721 185.36 141.078C183.715 147.437 179.241 152.906 171.938 157.483C169.48 159.024 166.607 160.423 163.319 161.679C160.031 162.936 156.751 163.836 153.479 164.379C152.497 165.497 151.54 166.65 150.607 167.838C149.747 168.98 149.009 170.147 148.392 171.337C144.717 168.815 141.055 166.385 137.407 164.047C133.83 161.664 130.205 159.211 126.53 156.689C126.838 156.093 127.135 155.555 127.42 155.075C127.656 154.525 127.953 153.987 128.311 153.461C135.761 156.734 141.989 158.51 146.996 158.79C148.674 158.945 150.484 158.917 152.424 158.706C154.437 158.45 156.412 158.066 158.349 157.556C160.335 157.115 162.222 156.536 164.011 155.817C165.799 155.098 167.344 154.33 168.646 153.515C171.393 151.793 173.604 149.904 175.279 147.849C176.954 145.794 178.069 143.687 178.625 141.529C179.733 136.913 178.705 132.38 175.54 127.929C174.353 126.26 172.793 124.875 170.86 123.774C168.878 122.604 166.866 121.905 164.822 121.677C160.348 121.265 152.892 122.319 142.454 124.84C134.098 126.759 126.88 127.413 120.8 126.8C112.874 126.239 106.958 123.211 103.051 117.717C99.0455 112.084 97.928 106.249 99.6985 100.213C101.324 94.2672 105.391 89.2549 111.898 85.1761C115.007 83.2273 118.341 81.7411 121.899 80.7175C122.892 80.4971 123.849 80.2994 124.77 80.1244C125.763 79.9041 126.684 79.729 127.532 79.5993L132.556 73.4341C136.132 75.8174 139.684 78.1659 143.21 80.4796C146.737 82.7933 150.289 85.1418 153.865 87.525C153.317 88.3713 152.794 89.2523 152.295 90.1681C145.698 87.0644 139.408 85.2758 133.427 84.8022C126.354 84.4099 120.106 85.9133 114.683 89.3124C112.803 90.4907 111.265 91.8566 110.07 93.41C108.826 94.8938 107.849 96.4609 107.141 98.1112C106.175 100.426 105.828 102.805 106.101 105.248C106.375 107.691 107.377 110.129 109.108 112.563C111.926 116.527 116.408 118.493 122.553 118.462C125.613 118.354 128.476 118.118 131.143 117.753C133.761 117.319 137.007 116.591 140.881 115.571C146.28 114.197 151.018 113.289 155.093 112.846C159.168 112.403 162.604 112.31 165.401 112.568C172.112 113.187 177.471 116.313 181.477 121.946Z" fill="#E6D0BB"/>
<path d="M235.503 29.6066C237.479 32.9843 239.448 36.3202 241.408 39.6142C243.368 42.9083 245.311 46.3352 247.237 49.8951C246.598 50.1804 246.009 50.5001 245.471 50.8544C245.016 51.1939 244.469 51.5063 243.83 51.7916C241.534 48.5565 239.413 45.9836 237.467 44.0729C235.589 42.0638 233.802 40.5149 232.107 39.4264C229.925 38.0768 227.515 37.3302 224.876 37.1865C222.238 37.0428 219.701 37.1847 217.263 37.6121C212.388 38.467 209.269 39.4037 207.906 40.4223C206.375 41.4703 205.834 43.1242 206.284 45.3839L219.545 112.046C220.028 114.473 221.294 116.026 223.343 116.706C225.207 117.332 228.955 117.151 234.586 116.164L235.385 120.181L199.832 126.416L199.033 122.398C204.076 121.514 207.397 120.499 208.995 119.352C211.132 117.852 211.959 115.888 211.476 113.461L198.015 45.7945C197.665 44.037 196.752 42.9413 195.274 42.5076C193.88 42.0591 191.249 42.1739 187.383 42.8519C184.441 43.3678 181.465 44.1495 178.455 45.197C175.53 46.2298 173.157 47.8584 171.338 50.0829C170.563 50.9982 169.864 52.0736 169.24 53.309C168.599 54.4607 167.899 55.9693 167.139 57.8348C166.683 59.0407 166.269 60.2393 165.898 61.4305C165.509 62.538 165.095 63.7365 164.656 65.0262C164.101 64.8635 163.556 64.7427 163.018 64.6638C162.548 64.4864 162.035 64.3164 161.481 64.1537C162.043 60.4175 162.613 56.7232 163.191 53.0706C163.769 49.4181 164.339 45.7238 164.9 41.9876L235.503 29.6066Z" fill="#E6D0BB"/>
<path d="M337.994 31.8105C335.299 31.368 332.859 31.6588 330.672 32.683C329.237 33.3983 327.354 35.1208 325.023 37.8504L296.007 73.417L291.154 99.4648C290.7 101.898 291.027 103.637 292.134 104.683C293.783 106.078 297.134 107.191 302.186 108.02L301.436 112.047L268.596 106.654L269.346 102.627C271.957 103.056 274.135 103.24 275.882 103.182C277.697 103.22 279.107 103.106 280.111 102.839C281.615 102.221 282.609 100.612 283.093 98.0113L287.689 73.3477L272.213 26.4539C271.562 24.3585 270.549 22.8088 269.174 21.8049C267.899 20.7309 265.788 19.9519 262.841 19.4679L263.591 15.4412L292.516 20.1915L291.765 24.2182C289.744 23.8863 287.842 23.6171 286.058 23.4106C284.374 23.134 283.14 23.234 282.357 23.7106C281.69 24.0332 281.301 24.4882 281.192 25.0754C281.167 25.6765 281.26 26.3402 281.472 27.0667L294.433 67.193L320.575 35.1746C321.137 34.4888 321.53 33.7752 321.755 33.0341C321.98 32.2929 321.818 31.5314 321.269 30.7497C320.378 29.4793 317.279 28.4085 311.975 27.5373L312.725 23.5106L338.744 27.7838L337.994 31.8105Z" fill="#E6D0BB"/>
<path d="M389.904 114.129L370.432 128.841L315.256 98.7506L317.478 95.1584C321.299 97.2421 324.407 98.2095 326.804 98.0606C328.616 97.8844 330.196 96.7077 331.543 94.5307L366.494 38.0362C367.975 35.6414 368.386 33.6818 367.726 32.1573C366.886 30.4376 364.369 28.4338 360.173 26.1459L362.328 22.6626L390.76 38.1674L388.605 41.6507C383.66 38.9542 380.297 37.7508 378.514 38.0405C376.732 38.3302 375.122 39.6362 373.686 41.9583L338.667 98.5617C337.32 100.739 336.865 102.528 337.3 103.93C337.885 105.414 339.488 106.871 342.11 108.301L354.584 115.103C359.678 117.881 364.779 118.868 369.887 118.062C375.009 117.556 381.037 115.262 387.97 111.182L389.904 114.129Z" fill="#E6D0BB"/>
</svg>
